<svg width="29" height="29" viewBox="0 0 29 29" fill="none" xmlns="http://www.w3.org/2000/svg">
<g clip-path="url(#clip0_596_3790)">
<path d="M14.5 11.8633V17.4787H22.3036C21.9609 19.2847 20.9326 20.8138 19.3904 21.842L24.0963 25.4934C26.8381 22.9625 28.4199 19.2452 28.4199 14.8293C28.4199 13.8012 28.3277 12.8124 28.1563 11.8634L14.5 11.8633Z" fill="white" fill-opacity="0.75"/>
<path d="M6.37292 17.2598L5.31157 18.0722L1.55469 20.9985C3.94059 25.7308 8.83068 28.9999 14.4988 28.9999C18.4137 28.9999 21.6959 27.7081 24.0951 25.4936L19.3892 21.8422C18.0974 22.7122 16.4496 23.2395 14.4988 23.2395C10.7288 23.2395 7.52575 20.6954 6.37885 17.2681L6.37292 17.2598Z" fill="white" fill-opacity="0.75"/>
<path d="M1.55534 8.00098C0.566759 9.95181 0 12.1532 0 14.4995C0 16.8458 0.566759 19.0472 1.55534 20.9981C1.55534 21.0112 6.37997 17.2544 6.37997 17.2544C6.08997 16.3844 5.91856 15.4618 5.91856 14.4994C5.91856 13.537 6.08997 12.6143 6.37997 11.7443L1.55534 8.00098Z" fill="white" fill-opacity="0.75"/>
<path d="M14.4991 5.77363C16.6346 5.77363 18.5328 6.51179 20.0487 7.93545L24.2009 3.78323C21.6832 1.43691 18.4142 0 14.4991 0C8.83098 0 3.94059 3.2559 1.55469 8.00137L6.37917 11.745C7.52592 8.3177 10.7291 5.77363 14.4991 5.77363Z" fill="white" fill-opacity="0.75"/>
</g>
<defs>
<clipPath id="clip0_596_3790">
<rect width="29" height="29" fill="white"/>
</clipPath>
</defs>
</svg>
